<svg id="visual" viewBox="0 0 1920 250" width="1920" height="250" xmlns="http://www.w3.org/2000/svg" xmlns:xlink="http://www.w3.org/1999/xlink" version="1.1"><path d="M0 65L17.8 74.8C35.7 84.7 71.3 104.3 106.8 117.3C142.3 130.3 177.7 136.7 213.2 130.8C248.7 125 284.3 107 320 102C355.7 97 391.3 105 426.8 105.7C462.3 106.3 497.7 99.7 533.2 95.5C568.7 91.3 604.3 89.7 640 90.2C675.7 90.7 711.3 93.3 746.8 91.3C782.3 89.3 817.7 82.7 853.2 81C888.7 79.3 924.3 82.7 960 88.3C995.7 94 1031.3 102 1066.8 103.7C1102.3 105.3 1137.7 100.7 1173.2 99C1208.7 97.3 1244.3 98.7 1280 106.5C1315.7 114.3 1351.3 128.7 1386.8 130.2C1422.3 131.7 1457.7 120.3 1493.2 115.3C1528.7 110.3 1564.3 111.7 1600 116.8C1635.7 122 1671.3 131 1706.8 132.2C1742.3 133.3 1777.7 126.7 1813.2 116.5C1848.7 106.3 1884.3 92.7 1902.2 85.8L1920 79L1920 251L1902.2 251C1884.3 251 1848.7 251 1813.2 251C1777.7 251 1742.3 251 1706.8 251C1671.3 251 1635.7 251 1600 251C1564.3 251 1528.7 251 1493.2 251C1457.7 251 1422.3 251 1386.8 251C1351.3 251 1315.7 251 1280 251C1244.3 251 1208.7 251 1173.2 251C1137.7 251 1102.3 251 1066.8 251C1031.3 251 995.7 251 960 251C924.3 251 888.7 251 853.2 251C817.7 251 782.3 251 746.8 251C711.3 251 675.7 251 640 251C604.3 251 568.7 251 533.2 251C497.7 251 462.3 251 426.8 251C391.3 251 355.7 251 320 251C284.3 251 248.7 251 213.2 251C177.7 251 142.3 251 106.8 251C71.3 251 35.7 251 17.8 251L0 251Z" fill="#a66fff"></path><path d="M0 162L17.8 153.8C35.7 145.7 71.3 129.3 106.8 124.5C142.3 119.7 177.7 126.3 213.2 126.5C248.7 126.7 284.3 120.3 320 121C355.7 121.7 391.3 129.3 426.8 127.3C462.3 125.3 497.7 113.7 533.2 112.3C568.7 111 604.3 120 640 126.8C675.7 133.7 711.3 138.3 746.8 143.2C782.3 148 817.7 153 853.2 148C888.7 143 924.3 128 960 119.5C995.7 111 1031.3 109 1066.8 106.7C1102.3 104.3 1137.7 101.7 1173.2 108.2C1208.7 114.7 1244.3 130.3 1280 137.3C1315.7 144.3 1351.3 142.7 1386.8 143.8C1422.3 145 1457.7 149 1493.2 144.2C1528.7 139.3 1564.3 125.7 1600 115.7C1635.7 105.7 1671.3 99.3 1706.8 100.2C1742.3 101 1777.7 109 1813.2 109.2C1848.7 109.3 1884.3 101.7 1902.2 97.8L1920 94L1920 251L1902.2 251C1884.3 251 1848.7 251 1813.2 251C1777.7 251 1742.3 251 1706.8 251C1671.3 251 1635.7 251 1600 251C1564.3 251 1528.7 251 1493.2 251C1457.7 251 1422.3 251 1386.8 251C1351.3 251 1315.7 251 1280 251C1244.3 251 1208.7 251 1173.2 251C1137.7 251 1102.3 251 1066.8 251C1031.3 251 995.7 251 960 251C924.3 251 888.7 251 853.2 251C817.7 251 782.3 251 746.8 251C711.3 251 675.7 251 640 251C604.3 251 568.7 251 533.2 251C497.7 251 462.3 251 426.8 251C391.3 251 355.7 251 320 251C284.3 251 248.7 251 213.2 251C177.7 251 142.3 251 106.8 251C71.3 251 35.7 251 17.8 251L0 251Z" fill="#8f60da"></path><path d="M0 138L17.8 138.3C35.7 138.7 71.3 139.3 106.8 143.5C142.3 147.7 177.7 155.3 213.2 152.5C248.7 149.7 284.3 136.3 320 130.7C355.7 125 391.3 127 426.8 132C462.3 137 497.7 145 533.2 153.3C568.7 161.7 604.3 170.3 640 169C675.7 167.7 711.3 156.3 746.8 154.8C782.3 153.3 817.7 161.7 853.2 162.3C888.7 163 924.3 156 960 154.8C995.7 153.7 1031.3 158.3 1066.8 161.8C1102.3 165.3 1137.7 167.7 1173.2 166.8C1208.7 166 1244.3 162 1280 153.7C1315.7 145.3 1351.3 132.7 1386.8 130.2C1422.3 127.7 1457.7 135.3 1493.2 138.8C1528.7 142.3 1564.3 141.7 1600 145.5C1635.7 149.3 1671.3 157.7 1706.8 154.3C1742.3 151 1777.7 136 1813.2 129.8C1848.7 123.7 1884.3 126.3 1902.2 127.7L1920 129L1920 251L1902.2 251C1884.3 251 1848.7 251 1813.2 251C1777.7 251 1742.3 251 1706.8 251C1671.3 251 1635.7 251 1600 251C1564.3 251 1528.7 251 1493.2 251C1457.7 251 1422.3 251 1386.8 251C1351.3 251 1315.7 251 1280 251C1244.3 251 1208.7 251 1173.2 251C1137.7 251 1102.3 251 1066.8 251C1031.3 251 995.7 251 960 251C924.3 251 888.7 251 853.2 251C817.7 251 782.3 251 746.8 251C711.3 251 675.7 251 640 251C604.3 251 568.7 251 533.2 251C497.7 251 462.3 251 426.8 251C391.3 251 355.7 251 320 251C284.3 251 248.7 251 213.2 251C177.7 251 142.3 251 106.8 251C71.3 251 35.7 251 17.8 251L0 251Z" fill="#7852b6"></path><path d="M0 152L17.8 153.8C35.7 155.7 71.3 159.3 106.8 164.3C142.3 169.3 177.7 175.7 213.2 174C248.7 172.3 284.3 162.7 320 161.8C355.7 161 391.3 169 426.8 168.7C462.3 168.3 497.7 159.7 533.2 158.8C568.7 158 604.3 165 640 172.7C675.7 180.3 711.3 188.7 746.8 188.8C782.3 189 817.7 181 853.2 173.8C888.7 166.7 924.3 160.3 960 160.3C995.7 160.3 1031.3 166.7 1066.8 168.3C1102.3 170 1137.7 167 1173.2 163.8C1208.7 160.7 1244.3 157.3 1280 161.8C1315.7 166.3 1351.3 178.7 1386.8 182.5C1422.3 186.3 1457.7 181.7 1493.2 182C1528.7 182.3 1564.3 187.7 1600 183.3C1635.7 179 1671.3 165 1706.8 163.2C1742.3 161.3 1777.7 171.7 1813.2 178C1848.7 184.3 1884.3 186.7 1902.2 187.8L1920 189L1920 251L1902.2 251C1884.3 251 1848.7 251 1813.2 251C1777.7 251 1742.3 251 1706.8 251C1671.3 251 1635.7 251 1600 251C1564.3 251 1528.7 251 1493.2 251C1457.7 251 1422.3 251 1386.8 251C1351.3 251 1315.7 251 1280 251C1244.3 251 1208.7 251 1173.2 251C1137.7 251 1102.3 251 1066.8 251C1031.3 251 995.7 251 960 251C924.3 251 888.7 251 853.2 251C817.7 251 782.3 251 746.8 251C711.3 251 675.7 251 640 251C604.3 251 568.7 251 533.2 251C497.7 251 462.3 251 426.8 251C391.3 251 355.7 251 320 251C284.3 251 248.7 251 213.2 251C177.7 251 142.3 251 106.8 251C71.3 251 35.7 251 17.8 251L0 251Z" fill="#624493"></path><path d="M0 174L17.8 178.5C35.7 183 71.3 192 106.8 195.8C142.3 199.7 177.7 198.3 213.2 197.5C248.7 196.7 284.3 196.3 320 199.3C355.7 202.3 391.3 208.7 426.8 209.8C462.3 211 497.7 207 533.2 203.3C568.7 199.7 604.3 196.3 640 198.2C675.7 200 711.3 207 746.8 206.8C782.3 206.7 817.7 199.3 853.2 193.2C888.7 187 924.3 182 960 180.5C995.7 179 1031.3 181 1066.8 187.2C1102.3 193.3 1137.7 203.7 1173.2 206C1208.7 208.3 1244.3 202.7 1280 200.3C1315.7 198 1351.3 199 1386.8 196.2C1422.3 193.3 1457.7 186.7 1493.2 182.5C1528.7 178.3 1564.3 176.7 1600 180.5C1635.7 184.3 1671.3 193.7 1706.8 196C1742.3 198.3 1777.7 193.7 1813.2 195C1848.7 196.3 1884.3 203.7 1902.2 207.3L1920 211L1920 251L1902.2 251C1884.3 251 1848.7 251 1813.2 251C1777.7 251 1742.3 251 1706.8 251C1671.3 251 1635.7 251 1600 251C1564.3 251 1528.7 251 1493.2 251C1457.7 251 1422.3 251 1386.8 251C1351.3 251 1315.7 251 1280 251C1244.3 251 1208.7 251 1173.2 251C1137.7 251 1102.3 251 1066.8 251C1031.3 251 995.7 251 960 251C924.3 251 888.7 251 853.2 251C817.7 251 782.3 251 746.8 251C711.3 251 675.7 251 640 251C604.3 251 568.7 251 533.2 251C497.7 251 462.3 251 426.8 251C391.3 251 355.7 251 320 251C284.3 251 248.7 251 213.2 251C177.7 251 142.3 251 106.8 251C71.3 251 35.7 251 17.8 251L0 251Z" fill="#4d3771"></path><path d="M0 220L17.8 221C35.7 222 71.3 224 106.8 225.5C142.3 227 177.7 228 213.2 224.7C248.7 221.3 284.3 213.7 320 210.3C355.7 207 391.3 208 426.8 212.3C462.3 216.7 497.7 224.3 533.2 227.7C568.7 231 604.3 230 640 227.5C675.7 225 711.3 221 746.8 219C782.3 217 817.7 217 853.2 218.2C888.7 219.3 924.3 221.7 960 220.2C995.7 218.7 1031.3 213.3 1066.8 214.2C1102.3 215 1137.7 222 1173.2 223C1208.7 224 1244.3 219 1280 218.3C1315.7 217.7 1351.3 221.3 1386.8 222.7C1422.3 224 1457.7 223 1493.2 223.2C1528.7 223.3 1564.3 224.7 1600 223C1635.7 221.3 1671.3 216.7 1706.8 213.7C1742.3 210.7 1777.7 209.3 1813.2 210.8C1848.7 212.3 1884.3 216.7 1902.2 218.8L1920 221L1920 251L1902.2 251C1884.3 251 1848.7 251 1813.2 251C1777.7 251 1742.3 251 1706.8 251C1671.3 251 1635.7 251 1600 251C1564.3 251 1528.7 251 1493.2 251C1457.7 251 1422.3 251 1386.8 251C1351.3 251 1315.7 251 1280 251C1244.3 251 1208.7 251 1173.2 251C1137.7 251 1102.3 251 1066.8 251C1031.3 251 995.7 251 960 251C924.3 251 888.7 251 853.2 251C817.7 251 782.3 251 746.8 251C711.3 251 675.7 251 640 251C604.3 251 568.7 251 533.2 251C497.7 251 462.3 251 426.8 251C391.3 251 355.7 251 320 251C284.3 251 248.7 251 213.2 251C177.7 251 142.3 251 106.8 251C71.3 251 35.7 251 17.8 251L0 251Z" fill="#392a51"></path></svg>