<svg id="visual" viewBox="0 0 1280 500" width="1280" height="500" xmlns="http://www.w3.org/2000/svg" xmlns:xlink="http://www.w3.org/1999/xlink" version="1.1"><path d="M0 381L42.7 374.3C85.3 367.7 170.7 354.3 256 353.7C341.3 353 426.7 365 512 374C597.3 383 682.7 389 768 385.5C853.3 382 938.7 369 1024 361.8C1109.3 354.7 1194.7 353.3 1237.3 352.7L1280 352L1280 501L1237.3 501C1194.7 501 1109.3 501 1024 501C938.7 501 853.3 501 768 501C682.7 501 597.3 501 512 501C426.7 501 341.3 501 256 501C170.7 501 85.3 501 42.7 501L0 501Z" fill="#a66fff"></path><path d="M0 383L42.7 379.8C85.3 376.7 170.7 370.3 256 375.7C341.3 381 426.7 398 512 398C597.3 398 682.7 381 768 379C853.3 377 938.7 390 1024 392.7C1109.3 395.3 1194.7 387.7 1237.3 383.8L1280 380L1280 501L1237.3 501C1194.7 501 1109.3 501 1024 501C938.7 501 853.3 501 768 501C682.7 501 597.3 501 512 501C426.7 501 341.3 501 256 501C170.7 501 85.3 501 42.7 501L0 501Z" fill="#c092ff"></path><path d="M0 405L42.7 410.3C85.3 415.7 170.7 426.3 256 427.8C341.3 429.3 426.7 421.7 512 414.2C597.3 406.7 682.7 399.3 768 397.3C853.3 395.3 938.7 398.7 1024 400C1109.3 401.3 1194.7 400.7 1237.3 400.3L1280 400L1280 501L1237.3 501C1194.7 501 1109.3 501 1024 501C938.7 501 853.3 501 768 501C682.7 501 597.3 501 512 501C426.7 501 341.3 501 256 501C170.7 501 85.3 501 42.7 501L0 501Z" fill="#d6b5ff"></path><path d="M0 422L42.7 427C85.3 432 170.7 442 256 443.8C341.3 445.7 426.7 439.3 512 436.8C597.3 434.3 682.7 435.7 768 439.2C853.3 442.7 938.7 448.3 1024 450.8C1109.3 453.3 1194.7 452.7 1237.3 452.3L1280 452L1280 501L1237.3 501C1194.7 501 1109.3 501 1024 501C938.7 501 853.3 501 768 501C682.7 501 597.3 501 512 501C426.7 501 341.3 501 256 501C170.7 501 85.3 501 42.7 501L0 501Z" fill="#ead8fe"></path><path d="M0 463L42.7 461.3C85.3 459.7 170.7 456.3 256 454.2C341.3 452 426.7 451 512 452C597.3 453 682.7 456 768 458.2C853.3 460.3 938.7 461.7 1024 463.2C1109.3 464.7 1194.7 466.3 1237.3 467.2L1280 468L1280 501L1237.3 501C1194.7 501 1109.3 501 1024 501C938.7 501 853.3 501 768 501C682.7 501 597.3 501 512 501C426.7 501 341.3 501 256 501C170.7 501 85.3 501 42.7 501L0 501Z" fill="#fcfcfc"></path></svg>