<?xml version="1.0" ?><svg width="64px" height="64px" viewBox="0 0 64 64" data-name="Layer 1" id="Layer_1" xmlns="http://www.w3.org/2000/svg"><defs><style>.cls-1{fill:#8c6239;}.cls-1,.cls-3{stroke:#42210b;}.cls-1,.cls-2,.cls-3,.cls-4{stroke-miterlimit:10;stroke-width:2px;}.cls-2{fill:#22b573;}.cls-2,.cls-4{stroke:#004924;}.cls-3{fill:#c69c6d;}.cls-4{fill:none;stroke-linecap:round;}.cls-5{fill:#33d186;}</style></defs><title/><g data-name="Layer 4" id="Layer_4"><polygon class="cls-1" points="44.3 55.5 19.7 55.5 16.14 45.94 47.86 45.94 44.3 55.5"/><path class="cls-2" d="M31.92,8.5h.15a9,9,0,0,1,9,9v23.2a0,0,0,0,1,0,0H22.87a0,0,0,0,1,0,0V17.55A9,9,0,0,1,31.92,8.5Z"/><rect class="cls-3" height="5.31" rx="1.89" ry="1.89" width="38.25" x="12.87" y="40.69"/><line class="cls-4" x1="25.69" x2="21.56" y1="13" y2="9.25"/><line class="cls-4" x1="39" x2="44.5" y1="15.75" y2="10.75"/><line class="cls-4" x1="23.69" x2="19.56" y1="25" y2="21.25"/><line class="cls-4" x1="23.69" x2="19.56" y1="37" y2="33.25"/><line class="cls-4" x1="40.98" x2="43.89" y1="26.17" y2="20.95"/><line class="cls-4" x1="40.22" x2="44.65" y1="36.57" y2="32.56"/><circle class="cls-5" cx="31.75" cy="13.5" r="1.75"/><circle class="cls-5" cx="34.75" cy="20.5" r="1.75"/><circle class="cls-5" cx="28.75" cy="26.5" r="1.75"/><circle class="cls-5" cx="34.75" cy="29.5" r="1.75"/><circle class="cls-5" cx="30.75" cy="34.5" r="1.75"/></g></svg>